<svg height="24.707001" viewBox="0 0 5.2916665 6.5370608" width="20" xmlns="http://www.w3.org/2000/svg"><g transform="matrix(.02480159 0 0 .02480159 -.113839 -.099206)"><path d="m136.28 4.09 81.67-.09-137.02 136.95-35.71 35.51-40.63-40.68zm-.76 122.28c1.06-1.4 3.01-.71 4.49-.89l77.87.02-70.97 70.9-40.84-40.59z" fill="#44d1fd"/><path d="m65.36 196.47 40.71-40.66 40.84 40.59.17.18-41 40.62z" fill="#1fbcfd"/><path d="m106.08 237.2 41-40.62 70.83 70.9c-26.68.06-53.35-.02-80.02.04-1.52.34-2.46-1.05-3.43-1.91z" fill="#08589c"/></g></svg>