<svg height="280" viewBox="0 0 47.624999 74.083334" width="180" xmlns="http://www.w3.org/2000/svg"><path d="m23.741173.25983534c-.712062.24055635-.397419 1.01667136-.507146 1.60214716-.314999 7.8002197-2.084293 15.7007255-6.000297 22.5685185-2.868395 5.154559-7.3481694 9.723604-13.0893083 11.469421-1.1595996.37818-2.3740932.543928-3.58229109.676475-.24722124.441138-.60070692 1.0591.11045153 1.239054.85959326.08893 1.72874636.147937 2.57983216.368153 4.2798373.942503 7.9173947 3.708976 10.7047797 7.014037 3.979614 4.672011 6.393476 10.544905 7.835299 16.419132.89862 3.865371 1.35225 7.98119 1.580535 12.001338.217647.204114 1.326571.453675 1.143278-.275847.273111-8.781755 2.27157-17.740475 7.115165-25.167903 2.045398-3.189608 4.681938-6.037261 7.996971-7.981747 2.297897-1.364163 4.898356-2.13422 7.536345-2.470192.166942-.477971.486254-1.200652-.301277-1.189108-1.310329-.042615-2.479491-.393924-3.682867-.770417-4.896429-1.655426-8.849966-5.371632-11.576717-9.696788-3.323386-5.078051-5.303822-11.11631-6.28722-17.1553841-.451523-2.6965085-.643967-5.4254433-.863514-8.14814229-.34007-.22720683-.39846-.56802096-.712019-.50274727z" style="opacity:.5;fill:none;stroke:#5b87ff;stroke-width:.505818;stroke-linecap:round;stroke-linejoin:bevel"/></svg>